<?xml version="1.0" encoding="utf-8"?>
<!-- Generator: Adobe Illustrator 21.0.0, SVG Export Plug-In . SVG Version: 6.00 Build 0)  -->
<svg version="1.1" id="Layer_1" xmlns="http://www.w3.org/2000/svg" xmlns:xlink="http://www.w3.org/1999/xlink" x="0px" y="0px"
	 viewBox="0 0 473 474" enable-background="new 0 0 473 474" xml:space="preserve">
<circle fill="#AFBBAB" stroke="#FFFFFF" stroke-width="0.25" stroke-miterlimit="10" cx="236.5" cy="237" r="71"/>
<g>
	<line fill="none" x1="236" y1="308" x2="236" y2="474"/>
	<path fill="#AFBBAB" d="M236.2,308c0.4,13.8,0.7,27.7,1,41.5L238,391l0.5,20.8c0.2,6.9,0.2,13.8,0,20.8l-0.3,10.4
		c-0.1,3.5-0.2,6.9-0.4,10.4c-0.3,6.9-0.8,13.8-1.5,20.8h-0.5c-0.7-6.9-1.2-13.8-1.5-20.8c-0.2-3.5-0.3-6.9-0.4-10.4l-0.3-10.4
		c-0.1-6.9-0.1-13.8,0-20.8L234,391l0.8-41.5c0.3-13.8,0.6-27.7,1-41.5H236.2z"/>
</g>
<g>
	<line fill="none" x1="166" y1="237" x2="0" y2="237"/>
	<path fill="#AFBBAB" d="M166,237.2c-13.8,0.4-27.7,0.7-41.5,1L83,239l-20.8,0.5c-6.9,0.2-13.8,0.2-20.8,0l-10.4-0.3
		c-3.5-0.1-6.9-0.2-10.4-0.4c-6.9-0.3-13.8-0.8-20.8-1.5v-0.5c6.9-0.7,13.8-1.2,20.8-1.5c3.5-0.2,6.9-0.3,10.4-0.4l10.4-0.3
		c6.9-0.1,13.8-0.1,20.8,0L83,235l41.5,0.8c13.8,0.3,27.7,0.6,41.5,1V237.2z"/>
</g>
<g>
	<line fill="none" x1="307" y1="237" x2="473" y2="237"/>
	<path fill="#AFBBAB" d="M307,236.8c13.8-0.4,27.7-0.7,41.5-1L390,235l20.8-0.5c6.9-0.2,13.8-0.2,20.8,0l10.4,0.3
		c3.5,0.1,6.9,0.2,10.4,0.4c6.9,0.3,13.8,0.8,20.8,1.5v0.5c-6.9,0.7-13.8,1.2-20.8,1.5c-3.5,0.2-6.9,0.3-10.4,0.4l-10.4,0.3
		c-6.9,0.1-13.8,0.1-20.8,0L390,239l-41.5-0.8c-13.8-0.3-27.7-0.6-41.5-1V236.8z"/>
</g>
<g>
	<line fill="none" x1="236.5" y1="166" x2="236.5" y2="0"/>
	<path fill="#AFBBAB" d="M236.2,166c-0.4-13.8-0.7-27.7-1-41.5L234.5,83L234,62.2c-0.2-6.9-0.2-13.8,0-20.8l0.3-10.4
		c0.1-3.5,0.2-6.9,0.4-10.4c0.3-6.9,0.8-13.8,1.5-20.8h0.5c0.7,6.9,1.2,13.8,1.5,20.8c0.2,3.5,0.3,6.9,0.4,10.4l0.3,10.4
		c0.1,6.9,0.1,13.8,0,20.8L238.5,83l-0.8,41.5c-0.3,13.8-0.6,27.7-1,41.5H236.2z"/>
</g>
</svg>
